<mxfile host="app.diagrams.net" modified="2022-01-08T09:22:23.246Z" agent="5.0 (Macintosh; Intel Mac OS X 10_15_7) AppleWebKit/537.36 (KHTML, like Gecko) Chrome/96.0.4664.110 Safari/537.36" etag="4MC-77DdbrtRPdRhWKR0" version="16.2.3" type="github">
  <diagram id="NbJqlMsGK9g4cn4cJewh" name="Page-1">
    <mxGraphModel dx="1186" dy="739" grid="1" gridSize="10" guides="1" tooltips="1" connect="1" arrows="1" fold="1" page="1" pageScale="1" pageWidth="827" pageHeight="1169" math="0" shadow="0">
      <root>
        <mxCell id="0" />
        <mxCell id="1" parent="0" />
        <mxCell id="rq1waJ9IVGkN5ey4Am_p-1" value="Dandelion" style="shape=umlFrame;whiteSpace=wrap;html=1;" parent="1" vertex="1">
          <mxGeometry x="260" y="30" width="650" height="1060" as="geometry" />
        </mxCell>
        <mxCell id="rq1waJ9IVGkN5ey4Am_p-21" style="edgeStyle=none;rounded=0;orthogonalLoop=1;jettySize=auto;html=1;entryX=0;entryY=0.5;entryDx=0;entryDy=0;" parent="1" source="rq1waJ9IVGkN5ey4Am_p-2" target="rq1waJ9IVGkN5ey4Am_p-18" edge="1">
          <mxGeometry relative="1" as="geometry" />
        </mxCell>
        <mxCell id="rq1waJ9IVGkN5ey4Am_p-2" value="Public" style="shape=umlActor;verticalLabelPosition=bottom;verticalAlign=top;html=1;" parent="1" vertex="1">
          <mxGeometry x="160" y="120" width="30" height="60" as="geometry" />
        </mxCell>
        <mxCell id="rq1waJ9IVGkN5ey4Am_p-14" style="rounded=0;orthogonalLoop=1;jettySize=auto;html=1;dashed=1;" parent="1" source="rq1waJ9IVGkN5ey4Am_p-5" target="rq1waJ9IVGkN5ey4Am_p-2" edge="1">
          <mxGeometry relative="1" as="geometry" />
        </mxCell>
        <mxCell id="ue-XuLcL9HTwdMkVsJ0a-4" style="edgeStyle=none;rounded=0;orthogonalLoop=1;jettySize=auto;html=1;" parent="1" source="rq1waJ9IVGkN5ey4Am_p-5" target="ue-XuLcL9HTwdMkVsJ0a-3" edge="1">
          <mxGeometry relative="1" as="geometry" />
        </mxCell>
        <mxCell id="rq1waJ9IVGkN5ey4Am_p-5" value="School user" style="shape=umlActor;verticalLabelPosition=bottom;verticalAlign=top;html=1;" parent="1" vertex="1">
          <mxGeometry x="70" y="285" width="30" height="60" as="geometry" />
        </mxCell>
        <mxCell id="rq1waJ9IVGkN5ey4Am_p-13" style="rounded=0;orthogonalLoop=1;jettySize=auto;html=1;dashed=1;" parent="1" source="rq1waJ9IVGkN5ey4Am_p-6" target="rq1waJ9IVGkN5ey4Am_p-5" edge="1">
          <mxGeometry relative="1" as="geometry" />
        </mxCell>
        <mxCell id="rq1waJ9IVGkN5ey4Am_p-6" value="Experiment participant" style="shape=umlActor;verticalLabelPosition=bottom;verticalAlign=top;html=1;" parent="1" vertex="1">
          <mxGeometry x="120" y="469" width="30" height="60" as="geometry" />
        </mxCell>
        <mxCell id="rq1waJ9IVGkN5ey4Am_p-12" style="rounded=0;orthogonalLoop=1;jettySize=auto;html=1;dashed=1;" parent="1" source="rq1waJ9IVGkN5ey4Am_p-7" target="TFbVGTCQrJptVCGoc_jB-1" edge="1">
          <mxGeometry relative="1" as="geometry" />
        </mxCell>
        <mxCell id="rq1waJ9IVGkN5ey4Am_p-7" value="School superuser" style="shape=umlActor;verticalLabelPosition=bottom;verticalAlign=top;html=1;" parent="1" vertex="1">
          <mxGeometry x="70" y="782" width="30" height="60" as="geometry" />
        </mxCell>
        <mxCell id="rq1waJ9IVGkN5ey4Am_p-19" style="edgeStyle=none;rounded=0;orthogonalLoop=1;jettySize=auto;html=1;dashed=1;" parent="1" source="rq1waJ9IVGkN5ey4Am_p-18" target="rq1waJ9IVGkN5ey4Am_p-8" edge="1">
          <mxGeometry relative="1" as="geometry" />
        </mxCell>
        <mxCell id="rq1waJ9IVGkN5ey4Am_p-8" value="search/browse" style="ellipse;whiteSpace=wrap;html=1;" parent="1" vertex="1">
          <mxGeometry x="750" y="230" width="140" height="70" as="geometry" />
        </mxCell>
        <mxCell id="rq1waJ9IVGkN5ey4Am_p-15" value="Extends" style="text;html=1;align=center;verticalAlign=middle;resizable=0;points=[];autosize=1;strokeColor=none;fillColor=none;" parent="1" vertex="1">
          <mxGeometry x="70" y="220" width="60" height="20" as="geometry" />
        </mxCell>
        <mxCell id="rq1waJ9IVGkN5ey4Am_p-16" value="Extends" style="text;html=1;align=center;verticalAlign=middle;resizable=0;points=[];autosize=1;strokeColor=none;fillColor=none;" parent="1" vertex="1">
          <mxGeometry x="110" y="400" width="60" height="20" as="geometry" />
        </mxCell>
        <mxCell id="rq1waJ9IVGkN5ey4Am_p-17" value="Extends" style="text;html=1;align=center;verticalAlign=middle;resizable=0;points=[];autosize=1;strokeColor=none;fillColor=none;" parent="1" vertex="1">
          <mxGeometry x="60" y="723" width="60" height="20" as="geometry" />
        </mxCell>
        <mxCell id="rq1waJ9IVGkN5ey4Am_p-18" value="visualise data" style="ellipse;whiteSpace=wrap;html=1;" parent="1" vertex="1">
          <mxGeometry x="530" y="120" width="140" height="70" as="geometry" />
        </mxCell>
        <mxCell id="rq1waJ9IVGkN5ey4Am_p-20" value="Includes" style="text;html=1;align=center;verticalAlign=middle;resizable=0;points=[];autosize=1;strokeColor=none;fillColor=none;" parent="1" vertex="1">
          <mxGeometry x="700" y="130" width="60" height="20" as="geometry" />
        </mxCell>
        <mxCell id="rq1waJ9IVGkN5ey4Am_p-22" value="view schools" style="ellipse;whiteSpace=wrap;html=1;" parent="1" vertex="1">
          <mxGeometry x="500" y="40" width="140" height="70" as="geometry" />
        </mxCell>
        <mxCell id="rq1waJ9IVGkN5ey4Am_p-23" style="edgeStyle=none;rounded=0;orthogonalLoop=1;jettySize=auto;html=1;dashed=1;exitX=0.971;exitY=0.629;exitDx=0;exitDy=0;exitPerimeter=0;" parent="1" source="rq1waJ9IVGkN5ey4Am_p-22" target="rq1waJ9IVGkN5ey4Am_p-8" edge="1">
          <mxGeometry relative="1" as="geometry">
            <mxPoint x="530" y="205" as="sourcePoint" />
            <mxPoint x="640" y="205" as="targetPoint" />
          </mxGeometry>
        </mxCell>
        <mxCell id="rq1waJ9IVGkN5ey4Am_p-24" value="Includes" style="text;html=1;align=center;verticalAlign=middle;resizable=0;points=[];autosize=1;strokeColor=none;fillColor=none;" parent="1" vertex="1">
          <mxGeometry x="680" y="180" width="60" height="20" as="geometry" />
        </mxCell>
        <mxCell id="rq1waJ9IVGkN5ey4Am_p-25" style="edgeStyle=none;rounded=0;orthogonalLoop=1;jettySize=auto;html=1;" parent="1" source="rq1waJ9IVGkN5ey4Am_p-2" target="rq1waJ9IVGkN5ey4Am_p-22" edge="1">
          <mxGeometry relative="1" as="geometry">
            <mxPoint x="200" y="150" as="sourcePoint" />
            <mxPoint x="390" y="205" as="targetPoint" />
          </mxGeometry>
        </mxCell>
        <mxCell id="rq1waJ9IVGkN5ey4Am_p-26" value="view school project details" style="ellipse;whiteSpace=wrap;html=1;" parent="1" vertex="1">
          <mxGeometry x="590" y="350" width="140" height="70" as="geometry" />
        </mxCell>
        <mxCell id="rq1waJ9IVGkN5ey4Am_p-27" value="Sysadmin" style="shape=umlActor;verticalLabelPosition=bottom;verticalAlign=top;html=1;" parent="1" vertex="1">
          <mxGeometry x="140" y="928" width="30" height="60" as="geometry" />
        </mxCell>
        <mxCell id="rq1waJ9IVGkN5ey4Am_p-28" value="Extends" style="text;html=1;align=center;verticalAlign=middle;resizable=0;points=[];autosize=1;strokeColor=none;fillColor=none;" parent="1" vertex="1">
          <mxGeometry x="70" y="900" width="60" height="20" as="geometry" />
        </mxCell>
        <mxCell id="rq1waJ9IVGkN5ey4Am_p-29" style="rounded=0;orthogonalLoop=1;jettySize=auto;html=1;dashed=1;exitX=0.25;exitY=0.1;exitDx=0;exitDy=0;exitPerimeter=0;" parent="1" source="rq1waJ9IVGkN5ey4Am_p-27" target="rq1waJ9IVGkN5ey4Am_p-7" edge="1">
          <mxGeometry relative="1" as="geometry">
            <mxPoint x="110" y="611" as="sourcePoint" />
            <mxPoint x="170" y="531" as="targetPoint" />
          </mxGeometry>
        </mxCell>
        <mxCell id="rq1waJ9IVGkN5ey4Am_p-30" value="login" style="ellipse;whiteSpace=wrap;html=1;" parent="1" vertex="1">
          <mxGeometry x="275" y="255" width="140" height="70" as="geometry" />
        </mxCell>
        <mxCell id="rq1waJ9IVGkN5ey4Am_p-31" style="edgeStyle=none;rounded=0;orthogonalLoop=1;jettySize=auto;html=1;" parent="1" target="rq1waJ9IVGkN5ey4Am_p-30" edge="1">
          <mxGeometry relative="1" as="geometry">
            <mxPoint x="100" y="315" as="sourcePoint" />
            <mxPoint x="390" y="205" as="targetPoint" />
          </mxGeometry>
        </mxCell>
        <mxCell id="rq1waJ9IVGkN5ey4Am_p-32" style="edgeStyle=none;rounded=0;orthogonalLoop=1;jettySize=auto;html=1;" parent="1" source="rq1waJ9IVGkN5ey4Am_p-5" target="rq1waJ9IVGkN5ey4Am_p-26" edge="1">
          <mxGeometry relative="1" as="geometry">
            <mxPoint x="120" y="280" as="sourcePoint" />
            <mxPoint x="390.2709104982248" y="291.9237166396275" as="targetPoint" />
          </mxGeometry>
        </mxCell>
        <mxCell id="rq1waJ9IVGkN5ey4Am_p-33" value="Record experiment&lt;br&gt;&amp;nbsp;data" style="ellipse;whiteSpace=wrap;html=1;" parent="1" vertex="1">
          <mxGeometry x="555" y="480" width="140" height="70" as="geometry" />
        </mxCell>
        <mxCell id="rq1waJ9IVGkN5ey4Am_p-34" value="Manage experiments" style="ellipse;whiteSpace=wrap;html=1;" parent="1" vertex="1">
          <mxGeometry x="440" y="620" width="140" height="70" as="geometry" />
        </mxCell>
        <mxCell id="rq1waJ9IVGkN5ey4Am_p-35" value="Create report" style="ellipse;whiteSpace=wrap;html=1;" parent="1" vertex="1">
          <mxGeometry x="650" y="585" width="140" height="70" as="geometry" />
        </mxCell>
        <mxCell id="rq1waJ9IVGkN5ey4Am_p-36" style="edgeStyle=none;rounded=0;orthogonalLoop=1;jettySize=auto;html=1;" parent="1" source="TFbVGTCQrJptVCGoc_jB-1" target="rq1waJ9IVGkN5ey4Am_p-34" edge="1">
          <mxGeometry relative="1" as="geometry">
            <mxPoint x="110" y="284.31506849315065" as="sourcePoint" />
            <mxPoint x="399.32553994539694" y="367.5457032719635" as="targetPoint" />
          </mxGeometry>
        </mxCell>
        <mxCell id="rq1waJ9IVGkN5ey4Am_p-37" style="edgeStyle=none;rounded=0;orthogonalLoop=1;jettySize=auto;html=1;" parent="1" source="rq1waJ9IVGkN5ey4Am_p-6" target="rq1waJ9IVGkN5ey4Am_p-33" edge="1">
          <mxGeometry relative="1" as="geometry">
            <mxPoint x="200" y="508.4242424242425" as="sourcePoint" />
            <mxPoint x="613.795516185821" y="437.36844671556605" as="targetPoint" />
          </mxGeometry>
        </mxCell>
        <mxCell id="rq1waJ9IVGkN5ey4Am_p-38" style="edgeStyle=none;rounded=0;orthogonalLoop=1;jettySize=auto;html=1;" parent="1" source="rq1waJ9IVGkN5ey4Am_p-6" target="rq1waJ9IVGkN5ey4Am_p-35" edge="1">
          <mxGeometry relative="1" as="geometry">
            <mxPoint x="200" y="510.18181818181824" as="sourcePoint" />
            <mxPoint x="390.41284763744056" y="499.79566285613964" as="targetPoint" />
          </mxGeometry>
        </mxCell>
        <mxCell id="rq1waJ9IVGkN5ey4Am_p-39" value="Manage projects" style="ellipse;whiteSpace=wrap;html=1;" parent="1" vertex="1">
          <mxGeometry x="490" y="900" width="140" height="70" as="geometry" />
        </mxCell>
        <mxCell id="rq1waJ9IVGkN5ey4Am_p-40" style="edgeStyle=none;rounded=0;orthogonalLoop=1;jettySize=auto;html=1;dashed=1;" parent="1" source="rq1waJ9IVGkN5ey4Am_p-26" target="rq1waJ9IVGkN5ey4Am_p-8" edge="1">
          <mxGeometry relative="1" as="geometry">
            <mxPoint x="530" y="205" as="sourcePoint" />
            <mxPoint x="640" y="205" as="targetPoint" />
          </mxGeometry>
        </mxCell>
        <mxCell id="rq1waJ9IVGkN5ey4Am_p-41" value="Includes" style="text;html=1;align=center;verticalAlign=middle;resizable=0;points=[];autosize=1;strokeColor=none;fillColor=none;" parent="1" vertex="1">
          <mxGeometry x="615" y="215" width="60" height="20" as="geometry" />
        </mxCell>
        <mxCell id="rq1waJ9IVGkN5ey4Am_p-42" value="Manage school users" style="ellipse;whiteSpace=wrap;html=1;" parent="1" vertex="1">
          <mxGeometry x="290" y="698" width="140" height="70" as="geometry" />
        </mxCell>
        <mxCell id="rq1waJ9IVGkN5ey4Am_p-43" value="Manage school admin data" style="ellipse;whiteSpace=wrap;html=1;" parent="1" vertex="1">
          <mxGeometry x="554" y="830" width="140" height="70" as="geometry" />
        </mxCell>
        <mxCell id="rq1waJ9IVGkN5ey4Am_p-44" style="edgeStyle=none;rounded=0;orthogonalLoop=1;jettySize=auto;html=1;" parent="1" target="rq1waJ9IVGkN5ey4Am_p-42" edge="1">
          <mxGeometry relative="1" as="geometry">
            <mxPoint x="100" y="812" as="sourcePoint" />
            <mxPoint x="610.8531978986016" y="706.5520701374655" as="targetPoint" />
          </mxGeometry>
        </mxCell>
        <mxCell id="rq1waJ9IVGkN5ey4Am_p-45" style="edgeStyle=none;rounded=0;orthogonalLoop=1;jettySize=auto;html=1;" parent="1" source="rq1waJ9IVGkN5ey4Am_p-7" target="rq1waJ9IVGkN5ey4Am_p-43" edge="1">
          <mxGeometry relative="1" as="geometry">
            <mxPoint x="110" y="783" as="sourcePoint" />
            <mxPoint x="350.3699906159118" y="770.5938069359531" as="targetPoint" />
          </mxGeometry>
        </mxCell>
        <mxCell id="rq1waJ9IVGkN5ey4Am_p-46" style="edgeStyle=none;rounded=0;orthogonalLoop=1;jettySize=auto;html=1;" parent="1" source="rq1waJ9IVGkN5ey4Am_p-7" target="rq1waJ9IVGkN5ey4Am_p-39" edge="1">
          <mxGeometry relative="1" as="geometry">
            <mxPoint x="120" y="793" as="sourcePoint" />
            <mxPoint x="360.3699906159118" y="780.5938069359531" as="targetPoint" />
          </mxGeometry>
        </mxCell>
        <mxCell id="rq1waJ9IVGkN5ey4Am_p-47" value="Manage superusers" style="ellipse;whiteSpace=wrap;html=1;" parent="1" vertex="1">
          <mxGeometry x="320" y="909" width="140" height="70" as="geometry" />
        </mxCell>
        <mxCell id="rq1waJ9IVGkN5ey4Am_p-48" value="Manage static data (incl. schools, etc.)" style="ellipse;whiteSpace=wrap;html=1;" parent="1" vertex="1">
          <mxGeometry x="360" y="999" width="140" height="70" as="geometry" />
        </mxCell>
        <mxCell id="rq1waJ9IVGkN5ey4Am_p-49" style="edgeStyle=none;rounded=0;orthogonalLoop=1;jettySize=auto;html=1;" parent="1" target="rq1waJ9IVGkN5ey4Am_p-47" edge="1">
          <mxGeometry relative="1" as="geometry">
            <mxPoint x="180" y="969" as="sourcePoint" />
            <mxPoint x="332.5388984686092" y="824.6592320956536" as="targetPoint" />
          </mxGeometry>
        </mxCell>
        <mxCell id="rq1waJ9IVGkN5ey4Am_p-50" style="edgeStyle=none;rounded=0;orthogonalLoop=1;jettySize=auto;html=1;" parent="1" target="rq1waJ9IVGkN5ey4Am_p-48" edge="1">
          <mxGeometry relative="1" as="geometry">
            <mxPoint x="180" y="969" as="sourcePoint" />
            <mxPoint x="331.903564972024" y="962.1067184557114" as="targetPoint" />
          </mxGeometry>
        </mxCell>
        <mxCell id="rq1waJ9IVGkN5ey4Am_p-51" value="System" style="shape=umlActor;verticalLabelPosition=bottom;verticalAlign=top;html=1;" parent="1" vertex="1">
          <mxGeometry x="990" y="740" width="30" height="60" as="geometry" />
        </mxCell>
        <mxCell id="rq1waJ9IVGkN5ey4Am_p-52" value="Node" style="shape=umlActor;verticalLabelPosition=bottom;verticalAlign=top;html=1;" parent="1" vertex="1">
          <mxGeometry x="990" y="928" width="30" height="60" as="geometry" />
        </mxCell>
        <mxCell id="rq1waJ9IVGkN5ey4Am_p-53" value="Monitor node health" style="ellipse;whiteSpace=wrap;html=1;" parent="1" vertex="1">
          <mxGeometry x="710" y="710" width="140" height="70" as="geometry" />
        </mxCell>
        <mxCell id="rq1waJ9IVGkN5ey4Am_p-54" value="Upload sensor data" style="ellipse;whiteSpace=wrap;html=1;" parent="1" vertex="1">
          <mxGeometry x="710" y="939" width="140" height="70" as="geometry" />
        </mxCell>
        <mxCell id="rq1waJ9IVGkN5ey4Am_p-55" style="edgeStyle=none;rounded=0;orthogonalLoop=1;jettySize=auto;html=1;" parent="1" source="rq1waJ9IVGkN5ey4Am_p-51" target="rq1waJ9IVGkN5ey4Am_p-53" edge="1">
          <mxGeometry relative="1" as="geometry">
            <mxPoint x="110" y="662.0769230769231" as="sourcePoint" />
            <mxPoint x="352.5388984686092" y="695.6592320956536" as="targetPoint" />
          </mxGeometry>
        </mxCell>
        <mxCell id="rq1waJ9IVGkN5ey4Am_p-56" style="edgeStyle=none;rounded=0;orthogonalLoop=1;jettySize=auto;html=1;" parent="1" source="rq1waJ9IVGkN5ey4Am_p-52" target="rq1waJ9IVGkN5ey4Am_p-54" edge="1">
          <mxGeometry relative="1" as="geometry">
            <mxPoint x="1000" y="800.6666666666667" as="sourcePoint" />
            <mxPoint x="858.3330942128782" y="816.4074339763467" as="targetPoint" />
          </mxGeometry>
        </mxCell>
        <mxCell id="rq1waJ9IVGkN5ey4Am_p-57" value="Download reports" style="ellipse;whiteSpace=wrap;html=1;" parent="1" vertex="1">
          <mxGeometry x="415" y="183" width="140" height="70" as="geometry" />
        </mxCell>
        <mxCell id="rq1waJ9IVGkN5ey4Am_p-58" value="Download data" style="ellipse;whiteSpace=wrap;html=1;" parent="1" vertex="1">
          <mxGeometry x="475" y="275" width="140" height="70" as="geometry" />
        </mxCell>
        <mxCell id="rq1waJ9IVGkN5ey4Am_p-59" style="edgeStyle=none;rounded=0;orthogonalLoop=1;jettySize=auto;html=1;" parent="1" source="rq1waJ9IVGkN5ey4Am_p-2" target="rq1waJ9IVGkN5ey4Am_p-57" edge="1">
          <mxGeometry relative="1" as="geometry">
            <mxPoint x="110" y="325" as="sourcePoint" />
            <mxPoint x="310" y="325" as="targetPoint" />
          </mxGeometry>
        </mxCell>
        <mxCell id="rq1waJ9IVGkN5ey4Am_p-60" style="edgeStyle=none;rounded=0;orthogonalLoop=1;jettySize=auto;html=1;" parent="1" source="rq1waJ9IVGkN5ey4Am_p-2" target="rq1waJ9IVGkN5ey4Am_p-58" edge="1">
          <mxGeometry relative="1" as="geometry">
            <mxPoint x="200" y="189.99780487804878" as="sourcePoint" />
            <mxPoint x="333.50787720391577" y="238.8421501965546" as="targetPoint" />
          </mxGeometry>
        </mxCell>
        <mxCell id="rq1waJ9IVGkN5ey4Am_p-61" style="edgeStyle=none;rounded=0;orthogonalLoop=1;jettySize=auto;html=1;dashed=1;" parent="1" source="rq1waJ9IVGkN5ey4Am_p-57" target="rq1waJ9IVGkN5ey4Am_p-8" edge="1">
          <mxGeometry relative="1" as="geometry">
            <mxPoint x="649.4335777249064" y="193.91795699826457" as="sourcePoint" />
            <mxPoint x="760" y="275" as="targetPoint" />
          </mxGeometry>
        </mxCell>
        <mxCell id="rq1waJ9IVGkN5ey4Am_p-62" style="edgeStyle=none;rounded=0;orthogonalLoop=1;jettySize=auto;html=1;dashed=1;" parent="1" source="rq1waJ9IVGkN5ey4Am_p-58" target="rq1waJ9IVGkN5ey4Am_p-8" edge="1">
          <mxGeometry relative="1" as="geometry">
            <mxPoint x="659.4335777249064" y="203.91795699826457" as="sourcePoint" />
            <mxPoint x="770" y="285" as="targetPoint" />
          </mxGeometry>
        </mxCell>
        <mxCell id="rq1waJ9IVGkN5ey4Am_p-63" value="Includes" style="text;html=1;align=center;verticalAlign=middle;resizable=0;points=[];autosize=1;strokeColor=none;fillColor=none;" parent="1" vertex="1">
          <mxGeometry x="640" y="265" width="60" height="20" as="geometry" />
        </mxCell>
        <mxCell id="rq1waJ9IVGkN5ey4Am_p-64" value="Includes" style="text;html=1;align=center;verticalAlign=middle;resizable=0;points=[];autosize=1;strokeColor=none;fillColor=none;" parent="1" vertex="1">
          <mxGeometry x="730" y="325" width="60" height="20" as="geometry" />
        </mxCell>
        <mxCell id="ue-XuLcL9HTwdMkVsJ0a-2" style="rounded=0;orthogonalLoop=1;jettySize=auto;html=1;" parent="1" source="TFbVGTCQrJptVCGoc_jB-1" target="ue-XuLcL9HTwdMkVsJ0a-1" edge="1">
          <mxGeometry relative="1" as="geometry" />
        </mxCell>
        <mxCell id="TFbVGTCQrJptVCGoc_jB-1" value="Project leader" style="shape=umlActor;verticalLabelPosition=bottom;verticalAlign=top;html=1;" parent="1" vertex="1">
          <mxGeometry x="160" y="608" width="30" height="60" as="geometry" />
        </mxCell>
        <mxCell id="TFbVGTCQrJptVCGoc_jB-2" style="rounded=0;orthogonalLoop=1;jettySize=auto;html=1;dashed=1;" parent="1" source="TFbVGTCQrJptVCGoc_jB-1" edge="1">
          <mxGeometry relative="1" as="geometry">
            <mxPoint x="80" y="630" as="sourcePoint" />
            <mxPoint x="130" y="530" as="targetPoint" />
          </mxGeometry>
        </mxCell>
        <mxCell id="TFbVGTCQrJptVCGoc_jB-3" value="Extends" style="text;html=1;align=center;verticalAlign=middle;resizable=0;points=[];autosize=1;strokeColor=none;fillColor=none;" parent="1" vertex="1">
          <mxGeometry x="90" y="575" width="60" height="20" as="geometry" />
        </mxCell>
        <mxCell id="TFbVGTCQrJptVCGoc_jB-4" value="Manage own project" style="ellipse;whiteSpace=wrap;html=1;" parent="1" vertex="1">
          <mxGeometry x="280" y="560.0000000000001" width="140" height="70" as="geometry" />
        </mxCell>
        <mxCell id="TFbVGTCQrJptVCGoc_jB-5" style="edgeStyle=none;rounded=0;orthogonalLoop=1;jettySize=auto;html=1;" parent="1" source="TFbVGTCQrJptVCGoc_jB-1" target="TFbVGTCQrJptVCGoc_jB-4" edge="1">
          <mxGeometry relative="1" as="geometry">
            <mxPoint x="80" y="559.9969230769232" as="sourcePoint" />
            <mxPoint x="340.3699906159118" y="526.5138069359532" as="targetPoint" />
          </mxGeometry>
        </mxCell>
        <mxCell id="KfBX19iLClI_ofNLciE3-1" value="Manage own experiment" style="ellipse;whiteSpace=wrap;html=1;" parent="1" vertex="1">
          <mxGeometry x="414" y="420.0000000000001" width="140" height="70" as="geometry" />
        </mxCell>
        <mxCell id="KfBX19iLClI_ofNLciE3-2" style="edgeStyle=none;rounded=0;orthogonalLoop=1;jettySize=auto;html=1;" parent="1" source="rq1waJ9IVGkN5ey4Am_p-6" target="KfBX19iLClI_ofNLciE3-1" edge="1">
          <mxGeometry relative="1" as="geometry">
            <mxPoint x="200" y="645.5500554060386" as="sourcePoint" />
            <mxPoint x="333.43899979593334" y="623.7555116611272" as="targetPoint" />
          </mxGeometry>
        </mxCell>
        <mxCell id="pllA2SgV67VZvydBItkm-1" value="Record session time-outs" style="ellipse;whiteSpace=wrap;html=1;" parent="1" vertex="1">
          <mxGeometry x="710" y="800" width="140" height="70" as="geometry" />
        </mxCell>
        <mxCell id="pllA2SgV67VZvydBItkm-2" style="edgeStyle=none;rounded=0;orthogonalLoop=1;jettySize=auto;html=1;" parent="1" source="rq1waJ9IVGkN5ey4Am_p-51" target="pllA2SgV67VZvydBItkm-1" edge="1">
          <mxGeometry relative="1" as="geometry">
            <mxPoint x="1000" y="731.6666666666667" as="sourcePoint" />
            <mxPoint x="858.3330942128782" y="747.4074339763467" as="targetPoint" />
          </mxGeometry>
        </mxCell>
        <mxCell id="ue-XuLcL9HTwdMkVsJ0a-1" value="Manage questions" style="ellipse;whiteSpace=wrap;html=1;" parent="1" vertex="1">
          <mxGeometry x="520" y="698" width="140" height="70" as="geometry" />
        </mxCell>
        <mxCell id="ue-XuLcL9HTwdMkVsJ0a-3" value="Answer question" style="ellipse;whiteSpace=wrap;html=1;" parent="1" vertex="1">
          <mxGeometry x="280" y="370.0000000000001" width="140" height="70" as="geometry" />
        </mxCell>
        <mxCell id="rvIRqDosldBg94OSYuMU-1" value="Manage node" style="ellipse;whiteSpace=wrap;html=1;" vertex="1" parent="1">
          <mxGeometry x="400" y="760" width="140" height="70" as="geometry" />
        </mxCell>
        <mxCell id="rvIRqDosldBg94OSYuMU-2" style="edgeStyle=none;rounded=0;orthogonalLoop=1;jettySize=auto;html=1;" edge="1" parent="1" source="rq1waJ9IVGkN5ey4Am_p-7" target="rvIRqDosldBg94OSYuMU-1">
          <mxGeometry relative="1" as="geometry">
            <mxPoint x="150" y="750" as="sourcePoint" />
            <mxPoint x="310.17945971586505" y="761.1762410863334" as="targetPoint" />
          </mxGeometry>
        </mxCell>
      </root>
    </mxGraphModel>
  </diagram>
</mxfile>
